# xmcd
#
# Track frame offsets:
#	150
#	13340
#	26824
#	43140
#	64309
#	79959
#	91510
#	107930
#	121251
#	134059
#	148633
#	167409
#	183926
#	197996
#	213852
#	226402
#
# Disc length: 3178 seconds
#
# Revision: 1
# Processed by: cddbd v1.5.2PL0 Copyright (c) Steve Scherf et al.
# Submitted via: audiograbber 1.83.01
#
DISCID=e60c6810
DTITLE=Various Artist - CDX 468
DYEAR=2009
DGENRE=Country
TTITLE0=Randy Rouser - Boots on
TTITLE1=SheDaisy - Bucket full of beautiful
TTITLE2=Bomshel - Fight like a girl
TTITLE3=Jamey Johnson - High cost of living
TTITLE4=Nikki Britt - Do I look like him (Emily's song)
TTITLE5=Mike Aiken - Bottom's up
TTITLE6=Derek Sholl - But it was
TTITLE7=Lauren Briant - Butterfly tattoo
TTITLE8=Jordan Carter - If money does the talking
TTITLE9=Kathe Knight - I'm gonna be a country girl again
TTITLE10=Colt Ford feat. John Michael Montgomery - Ride through the country
TTITLE11=Craig Reynolds - Rollin' in the hey
TTITLE12=Stephen Dale - Things that never happened
TTITLE13=Nash3 - Tribute to America
TTITLE14=River County - We're all here
TTITLE15=Shane Wyatt - Whole lotta love
EXTD=
EXTT0=
EXTT1=
EXTT2=
EXTT3=
EXTT4=
EXTT5=
EXTT6=
EXTT7=
EXTT8=
EXTT9=
EXTT10=
EXTT11=
EXTT12=
EXTT13=
EXTT14=
EXTT15=
PLAYORDER=
